<svg xmlns="http://www.w3.org/2000/svg" xmlns:xlink="http://www.w3.org/1999/xlink" xml:space="preserve" viewBox="0 0 24 24">
  <defs>
    <path id="a" fill="#F3F3F3" d="M22 16.5c0 3.0327-4.4858 5.5-10 5.5S2 19.5327 2 16.5v-2c0-.5397 1.0275-1.969 3.0076-2.6667C5.0065 11.8873 5 11.9473 5 12c0 .7914.1426 1.5767.4028 2.3192a16.057 16.057 0 0 1-.7627-.2015c-.2656-.0786-.543.0747-.62.3398s.0746.543.3398.6201C6.3984 15.6724 9.1119 16 12 16s5.6016-.3276 7.6401-.9224c.2652-.0771.417-.355.3399-.62s-.3526-.418-.6201-.34a16.0571 16.0571 0 0 1-.7627.2016C18.8574 13.5766 19 12.791 19 12c0-.0527-.0065-.1127-.0076-.1667C20.9724 12.531 22 13.9603 22 14.5v2z"/>
  </defs>
  <path fill="#303C42" d="M18.9043 10.7615C18.3861 6.8445 15.6368 1 12 1s-6.3861 5.8444-6.9043 9.7615C2.7333 11.4507 1 13.245 1 14.5v2C1 20.145 5.8315 23 12 23s11-2.855 11-6.5v-2c0-1.2549-1.7333-3.0493-4.0957-3.7385z"/>
  <path fill="#FFCB29" d="M12 2c3.2227 0 6 6.707 6 10 0 .886-.2063 1.7627-.5817 2.5586C15.8081 14.8442 13.9513 15 12 15s-3.8081-.1558-5.4184-.4415C6.2016 13.757 6 12.8992 6 12 6 8.707 8.7773 2 12 2z"/>
  <path fill="#FFF" d="M7.5 12C7.5 8.707 9.583 2 12 2 8.7773 2 6 8.707 6 12c0 .8992.2016 1.757.5816 2.5585C8.1919 14.8442 10.0486 15 12 15c-1.4635 0-2.856-.1558-4.0638-.4415C7.6512 13.757 7.5 12.8992 7.5 12z" opacity=".2"/>
  <path fill="#010101" d="M12 2c2.417 0 4.5 6.707 4.5 10 0 .886-.1547 1.7627-.4362 2.5586C14.856 14.8442 13.4635 15 12 15c1.9514 0 3.8081-.1558 5.4183-.4414C17.7937 13.7627 18 12.886 18 12c0-3.293-2.7773-10-6-10z" opacity=".1"/>
  <use xlink:href="#a"/>
  <use xlink:href="#a"/>
  <path fill="#010101" d="M12 20.6667c-5.5142 0-10-2.4672-10-5.5V16.5C2 19.5327 6.4858 22 12 22s10-2.4673 10-5.5v-1.3333c0 3.0328-4.4858 5.5-10 5.5z" opacity=".1"/>
  
  <path fill="#FFF" d="M18.9924 11.8333c.0011.054.0076.114.0076.1667 0 .791-.1426 1.5766-.4028 2.3192a16.057 16.057 0 0 0 .7627-.2015c.2675-.0781.543.0747.62.3398s-.0746.543-.3398.6201C17.6016 15.6724 14.8881 16 12 16s-5.6016-.3276-7.6401-.9224a.5.5 0 0 1-.3399-.62c.0771-.265.3545-.4185.6201-.34.2442.0713.4987.1384.7627.2016C5.1426 13.5767 5 12.7914 5 12c0-.0527.0065-.1127.0076-.1667C3.0276 12.531 2 13.9603 2 14.5 3.2188 15.75 5.4028 17 12 17c7.2876 0 8.5313-1.4375 10-2.5 0-.5397-1.0275-1.969-3.0076-2.6667z"/>
  <path fill="#010101" d="M19 12c0 .791-.1426 1.5766-.4028 2.3192a16.057 16.057 0 0 0 .7627-.2015c.0368-.0108.0729-.0072.1095-.0095.2938-.5818.4665-1.1958.5085-1.82-.2996-.168-.6208-.3264-.9855-.455.0011.0541.0076.114.0076.1668zm-14.9784.2885c.041.6298.2114 1.238.507 1.8194.0373.0022.0742-.0013.1115.0098.2442.0712.4987.1383.7627.2015C5.1426 13.5767 5 12.7914 5 12c0-.0527.0065-.1127.0076-.1667-.3649.1286-.6862.287-.986.4552z" opacity=".1"/>
  <linearGradient id="b" x1="3.4998" x2="22.833" y1="8.7618" y2="17.777" gradientUnits="userSpaceOnUse">
    <stop offset="0" stop-color="#fff" stop-opacity=".2"/>
    <stop offset="1" stop-color="#fff" stop-opacity="0"/>
  </linearGradient>
  <path fill="url(#b)" d="M18.9043 10.7615C18.3861 6.8445 15.6368 1 12 1s-6.3861 5.8444-6.9043 9.7615C2.7333 11.4507 1 13.245 1 14.5v2C1 20.145 5.8315 23 12 23s11-2.855 11-6.5v-2c0-1.2549-1.7333-3.0493-4.0957-3.7385z"/>
</svg>